<svg xmlns="http://www.w3.org/2000/svg" xmlns:xlink="http://www.w3.org/1999/xlink" style="margin:auto;background:#001f2d;display:block;z-index:1;position:relative" width="1976" height="947" preserveAspectRatio="xMidYMid" viewBox="0 0 1976 947">
<g transform="translate(988,473.5) scale(1,1) translate(-988,-473.5)"><g transform="translate(1596.69928659179,-174.69890350311925) scale(100)" opacity="0.33">
  <path d="M8.892000000000001 0 C8.892000000000001 6.491160000000001 6.491160000000002 8.892000000000001 5.444779669009133e-16 8.892000000000001 S-8.892000000000001 6.491160000000002 -8.892000000000001 1.0889559338018266e-15 S-6.4911600000000025 -8.892 -1.6334339007027399e-15 -8.892000000000001 S8.892 -6.4911600000000025 8.892000000000001 -2.177911867603653e-15" fill="#3c90af" stroke-width="0">
    <animateTransform attributeName="transform" type="rotate" dur="33.333333333333336s" repeatCount="indefinite" values="0;180"></animateTransform>
  </path>
</g><g transform="translate(1718.439143910148,-304.3386842037431) scale(100)" opacity="0.33">
  <path d="M10.670400000000003 0 C10.670400000000003 7.789392000000002 7.789392000000003 10.670400000000003 6.53373560281096e-16 10.670400000000003 S-10.6704 7.789392000000003 -10.670400000000003 1.306747120562192e-15 S-7.789392000000004 -10.6704 -1.960120680843288e-15 -10.670400000000003 S10.6704 -7.789392000000005 10.670400000000003 -2.613494241124384e-15" fill="#227ca7" stroke-width="0">
    <animateTransform attributeName="transform" type="rotate" dur="16.666666666666668s" repeatCount="indefinite" values="0;180"></animateTransform>
  </path>
</g><g transform="translate(2010.614801474207,-615.4741578852404) scale(100)" opacity="0.33">
  <path d="M14.938560000000003 0 C14.938560000000003 10.905148800000001 10.905148800000003 14.938560000000003 9.147229843935344e-16 14.938560000000003 S-14.93856 10.905148800000003 -14.938560000000003 1.829445968787069e-15 S-10.905148800000005 -14.93856 -2.744168953180603e-15 -14.938560000000003 S14.938559999999999 -10.905148800000005 14.938560000000003 -3.658891937574138e-15" fill="#0a689f" stroke-width="0">
    <animateTransform attributeName="transform" type="rotate" dur="11.11111111111111s" repeatCount="indefinite" values="0;180"></animateTransform>
  </path>
</g><g transform="translate(2624.183682358732,-1268.8586526163847) scale(100)" opacity="0.33">
  <path d="M23.901696000000005 0 C23.901696000000005 17.448238080000003 17.448238080000003 23.901696000000005 1.4635567750296551e-15 23.901696000000005 S-23.901696 17.448238080000007 -23.901696000000005 2.9271135500593102e-15 S-17.448238080000007 -23.901696 -4.3906703250889645e-15 -23.901696000000005 S23.901696 -17.44823808000001 23.901696000000005 -5.8542271001186204e-15" fill="#045494" stroke-width="0">
    <animateTransform attributeName="transform" type="rotate" dur="8.333333333333334s" repeatCount="indefinite" values="0;180"></animateTransform>
  </path>
</g></g>
</svg>